<svg xmlns="http://www.w3.org/2000/svg" xmlns:xlink="http://www.w3.org/1999/xlink" width="500" zoomAndPan="magnify" viewBox="0 0 375 374.999991" height="500" preserveAspectRatio="xMidYMid meet" version="1.0"><defs><clipPath id="id1"><path d="M 14 110 L 362.089844 110 L 362.089844 283.230469 L 14 283.230469 Z M 14 110 " clip-rule="nonzero"/></clipPath><clipPath id="id2"><path d="M 254 110 L 362.089844 110 L 362.089844 283.230469 L 254 283.230469 Z M 254 110 " clip-rule="nonzero"/></clipPath></defs><path fill="rgb(100%, 100%, 100%)" d="M 264.394531 61.449219 C 247.363281 59.882812 229.667969 69.910156 224.9375 83.792969 L 212.878906 119.1875 C 211.171875 119.605469 209.691406 120.84375 209.050781 122.625 C 208.042969 125.449219 209.503906 128.558594 212.320312 129.570312 C 215.140625 130.585938 218.242188 129.121094 219.253906 126.300781 C 220.109375 123.925781 219.199219 121.347656 217.214844 119.988281 L 229.402344 84.207031 C 233.453125 72.308594 248.5625 63.75 263.148438 65.09375 C 277.734375 66.433594 286.277344 77.160156 282.222656 89.054688 L 271.089844 121.746094 C 269.171875 122.023438 267.457031 123.324219 266.757812 125.28125 C 265.742188 128.101562 267.203125 131.210938 270.023438 132.226562 C 272.84375 133.242188 275.945312 131.773438 276.957031 128.953125 C 277.753906 126.734375 277.015625 124.339844 275.296875 122.925781 L 286.691406 89.46875 C 291.421875 75.582031 281.417969 63.011719 264.394531 61.449219 " fill-opacity="1" fill-rule="nonzero"/><path fill="rgb(100%, 100%, 100%)" d="M 280.183594 64.183594 C 263.160156 62.621094 245.460938 72.644531 240.730469 86.527344 L 228.675781 121.925781 C 226.964844 122.339844 225.488281 123.578125 224.847656 125.363281 C 223.835938 128.183594 225.300781 131.292969 228.117188 132.308594 C 230.933594 133.320312 234.039062 131.859375 235.050781 129.035156 C 235.902344 126.660156 234.996094 124.085938 233.011719 122.722656 L 245.199219 86.9375 C 249.25 75.046875 264.359375 66.488281 278.945312 67.828125 C 293.53125 69.167969 302.070312 79.894531 298.019531 91.789062 L 286.886719 124.480469 C 284.960938 124.757812 283.253906 126.0625 282.554688 128.019531 C 281.535156 130.835938 283 133.945312 285.820312 134.960938 C 288.632812 135.976562 291.742188 134.511719 292.753906 131.6875 C 293.550781 129.46875 292.8125 127.078125 291.089844 125.660156 L 302.488281 92.203125 C 307.21875 78.316406 297.210938 65.75 280.183594 64.183594 " fill-opacity="1" fill-rule="nonzero"/><g clip-path="url(#id1)"><path fill="rgb(100%, 56.858826%, 30.198669%)" d="M 327.894531 116.40625 L 314.550781 110.851562 L 281.199219 112.308594 L 277.773438 122.371094 C 279.402344 124.402344 279.898438 127.175781 279 129.691406 C 277.917969 132.699219 275.050781 134.722656 271.859375 134.722656 C 271.855469 134.722656 271.855469 134.722656 271.855469 134.722656 C 270.546875 134.71875 269.265625 134.382812 268.082031 133.714844 C 267.066406 133.144531 266.191406 132.324219 265.550781 131.351562 C 264.191406 129.289062 263.902344 126.808594 264.714844 124.546875 C 265.507812 122.339844 267.25 120.652344 269.421875 119.917969 L 271.878906 112.714844 L 221.230469 114.925781 L 219.734375 119.320312 C 221.941406 121.714844 222.453125 125.375 220.652344 128.390625 C 219.582031 130.195312 217.777344 131.476562 215.722656 131.902344 C 213.921875 132.273438 212.105469 132.003906 210.480469 131.121094 C 209.421875 130.539062 208.515625 129.710938 207.851562 128.699219 C 206.488281 126.640625 206.203125 124.15625 207.015625 121.890625 C 207.734375 119.882812 209.25 118.296875 211.175781 117.476562 L 211.902344 115.332031 L 182.667969 116.605469 L 172.332031 137.628906 L 241.363281 137.628906 C 245.035156 137.628906 248.164062 140.492188 248.292969 144.167969 C 248.429688 148.027344 245.347656 151.199219 241.523438 151.199219 L 67.261719 151.199219 C 64.679688 151.199219 62.324219 152.667969 61.183594 154.988281 C 58.964844 159.496094 62.242188 164.769531 67.261719 164.769531 L 217.589844 164.769531 C 221.265625 164.769531 224.394531 167.632812 224.523438 171.3125 C 224.660156 175.171875 221.574219 178.34375 217.75 178.34375 L 97.144531 178.34375 C 94.5625 178.34375 92.203125 179.8125 91.0625 182.132812 C 88.847656 186.640625 92.125 191.914062 97.144531 191.914062 L 188.1875 191.914062 C 191.863281 191.914062 194.992188 194.773438 195.121094 198.449219 C 195.257812 202.3125 192.175781 205.484375 188.351562 205.484375 L 20.886719 205.484375 C 18.304688 205.484375 15.949219 206.953125 14.808594 209.273438 C 12.589844 213.78125 15.867188 219.058594 20.886719 219.058594 L 201.796875 219.058594 C 205.46875 219.058594 208.597656 221.917969 208.726562 225.59375 C 208.863281 229.457031 205.78125 232.625 201.957031 232.625 L 40.394531 232.625 C 37.816406 232.625 35.457031 234.09375 34.316406 236.414062 C 32.101562 240.921875 35.378906 246.195312 40.394531 246.195312 L 152.195312 246.195312 C 155.871094 246.195312 159 249.058594 159.128906 252.738281 C 159.265625 256.59375 156.183594 259.769531 152.359375 259.769531 L 112.265625 259.769531 L 99.125 286.496094 L 254.972656 311.578125 L 365.09375 303.125 L 327.894531 116.40625 " fill-opacity="1" fill-rule="nonzero"/></g><g clip-path="url(#id2)"><path fill="rgb(100%, 100%, 100%)" d="M 314.550781 110.851562 L 254.972656 311.578125 L 365.09375 303.125 L 327.894531 116.40625 L 314.550781 110.851562 " fill-opacity="1" fill-rule="nonzero"/></g></svg>